# xmcd CD database file
#
# Track frame offsets:
#	150
#	13567
#	28914
#	40713
#	55808
#	69465
#	83224
#	107621
#	122843
#	134470
#	150982
#	165426
#	180181
#	196779
#	214432
#	231387
#	244480
#	269152
#
# Disc length: 3819 seconds
#
# Revision: 2
# Processed by: cddbd v1.5.2PL0 Copyright (c) Steve Scherf et al.
# Submitted via: CDex 1.81
#
DISCID=f80ee912
DTITLE=Oscar Peterson - JB 08 Oscar Peterson
DYEAR=2004
DGENRE=Jazz
TTITLE0=Sleepy Time Gal
TTITLE1=My Heart Stood Still
TTITLE2=Somebody Loves Me
TTITLE3=I Surrender Dear
TTITLE4=Ghost Of A Chance
TTITLE5=Stairway To The Stars
TTITLE6=Cheek To Cheek
TTITLE7=Body And Soul
TTITLE8=To A Wild Rose
TTITLE9=Night And Day
TTITLE10=It Ain't Necessarily So
TTITLE11=Prelude To A Kiss
TTITLE12=Just A-Sittin' And A-Rockin'
TTITLE13=You Go To My Head
TTITLE14=Long Ago And Far Away
TTITLE15=Blue Moon
TTITLE16=Pompton Turnpike
TTITLE17=Love For Sale
EXTD=YEAR: 2004
EXTT0=
EXTT1=
EXTT2=
EXTT3=
EXTT4=
EXTT5=
EXTT6=
EXTT7=
EXTT8=
EXTT9=
EXTT10=
EXTT11=
EXTT12=
EXTT13=
EXTT14=
EXTT15=
EXTT16=
EXTT17=
PLAYORDER=
